<svg width="80" height="80" viewBox="0 0 80 80" fill="none" xmlns="http://www.w3.org/2000/svg">
<rect width="80" height="80" rx="5" fill="url(#paint0_radial_2_144)"/>
<path d="M8.88889 46.8232C8.88889 49.9706 9.9714 52.692 12.16 54.9638C14.3485 57.2356 17.0078 58.4425 20.1847 58.5845C20.4436 58.5845 20.5848 58.4425 20.5848 58.1822V55.0112C20.5848 54.7509 20.4436 54.6089 20.1847 54.6089C18.1609 54.5142 16.443 53.6859 15.031 52.1714C13.619 50.6569 12.913 48.8584 12.913 46.8232C12.913 44.8827 13.572 43.1789 14.9133 41.7117C16.2547 40.2445 17.902 39.4162 19.8553 39.1796L21.1025 39.0612C21.4084 39.0612 21.5732 38.9193 21.5732 38.6589L21.7379 37.3811C21.9968 34.8253 23.0558 32.6718 24.9619 30.9443C26.8681 29.2168 29.1037 28.3412 31.6688 28.3412C34.2339 28.3412 36.4696 29.2168 38.3993 30.9443C40.329 32.6718 41.4115 34.8253 41.6939 37.3811L41.8586 38.7299C41.8586 39.0139 41.9998 39.1796 42.2587 39.1796H46.071C48.1655 39.1796 49.954 39.9368 51.4836 41.4514C53.0133 42.9659 53.7663 44.7407 53.7663 46.8232C53.7663 48.882 53.0603 50.6569 51.6484 52.1714C50.2364 53.6859 48.5185 54.4905 46.5182 54.6089C46.2358 54.6089 46.071 54.7509 46.071 55.0112V58.1822C46.071 58.4425 46.2122 58.5845 46.5182 58.5845C49.6481 58.4899 52.3073 57.283 54.4959 55.0112C56.6844 52.7157 57.767 49.9943 57.767 46.8469C57.767 45.143 57.4375 43.5575 56.7786 42.0903C58.6141 39.7948 59.5319 37.1917 59.5319 34.2573C59.5319 32.0092 58.9671 29.9267 57.8611 28.0099C56.755 26.0931 55.2489 24.5785 53.3427 23.4663C51.4366 22.354 49.3892 21.8098 47.1771 21.8098C43.5059 21.8098 40.4702 23.1823 38.0463 25.9274C36.1166 24.8862 33.9986 24.3655 31.6688 24.3655C28.3507 24.3655 25.3855 25.4068 22.8204 27.4893C20.2553 29.5717 18.608 32.2222 17.8785 35.4406C15.2663 36.0558 13.1248 37.4284 11.4305 39.5582C9.73607 41.688 8.88889 44.1018 8.88889 46.8232ZM21.5967 63.0571C21.5967 63.4594 21.7144 63.8381 21.9732 64.2167C22.2321 64.5953 22.6086 64.8556 23.1264 64.9976C23.3852 65.0449 23.597 65.0923 23.7617 65.0923C24.6795 65.0923 25.2914 64.5953 25.5738 63.5777L29.292 49.663C29.4567 49.095 29.3861 48.5744 29.1037 48.0774C28.8213 47.5805 28.3978 47.2965 27.8565 47.1782C27.3388 47.0125 26.8446 47.0599 26.3739 47.3438C25.9033 47.6042 25.5738 48.0065 25.4091 48.5507L21.6908 62.5365C21.6438 62.8441 21.5967 63.0098 21.5967 63.0571ZM27.7388 70.3458C27.7388 70.7954 27.8565 71.1977 28.0918 71.5764C28.3272 71.955 28.7272 72.1916 29.3155 72.2863C29.5744 72.3336 29.7862 72.381 29.9274 72.381C30.3039 72.381 30.6569 72.239 30.9864 71.9787C31.3158 71.6947 31.5276 71.3161 31.6218 70.8428L37.2697 49.7103C37.4109 49.166 37.3638 48.6454 37.105 48.1958C36.8461 47.7461 36.446 47.4148 35.9283 47.2492C35.3871 47.0835 34.8693 47.1309 34.3987 47.4148C33.928 47.6751 33.5985 48.0774 33.4573 48.6217L27.8094 69.7542C27.7624 70.1092 27.7388 70.3221 27.7388 70.3458ZM28.7272 17.7395C28.7272 18.3074 28.9155 18.7807 29.3155 19.183L30.8452 20.7449C31.2923 21.0998 31.7865 21.2655 32.3042 21.2655C32.7984 21.2655 33.2691 21.0762 33.6691 20.7212C34.0692 20.3426 34.281 19.8929 34.281 19.325C34.281 18.757 34.0927 18.2364 33.7162 17.8104L32.2101 16.2722C31.7865 15.87 31.3158 15.6806 30.7981 15.6806C30.2333 15.6806 29.7391 15.8936 29.3391 16.2959C28.939 16.6982 28.7272 17.1952 28.7272 17.7395ZM37.505 63.1045C37.505 63.4831 37.6227 63.8617 37.858 64.2167C38.0934 64.5717 38.4699 64.832 38.9405 64.974C39.1994 65.0213 39.4112 65.0686 39.5289 65.0686C39.9289 65.0686 40.329 64.9503 40.682 64.7136C41.035 64.477 41.2703 64.0984 41.388 63.5541L45.1062 49.6393C45.2474 49.095 45.2003 48.5744 44.9415 48.1248C44.6826 47.6515 44.2825 47.3438 43.7648 47.1782C43.2 47.0125 42.7058 47.0599 42.2352 47.3438C41.7645 47.6042 41.4586 48.0065 41.3174 48.5507L37.5992 62.5365C37.5521 62.8915 37.505 63.0808 37.505 63.1045ZM41.3409 28.2229C43.0118 26.6373 44.9415 25.8564 47.1771 25.8564C49.4833 25.8564 51.4601 26.6847 53.0604 28.3175C54.6841 29.9504 55.4842 31.9382 55.4842 34.281C55.4842 35.7482 55.0842 37.2154 54.2605 38.6589C51.9778 36.3635 49.248 35.2276 46.0475 35.2276H45.2709C44.6355 32.4352 43.3177 30.116 41.3409 28.2229ZM45.1533 15.799C45.1533 16.3432 45.3415 16.8165 45.7416 17.1952C46.1416 17.5738 46.6123 17.7631 47.1771 17.7631C47.7184 17.7631 48.189 17.5738 48.5655 17.2188C48.9421 16.8402 49.1303 16.3906 49.1303 15.8226V10.9477C49.1303 10.3324 48.9421 9.83548 48.5891 9.45685C48.2125 9.07822 47.7654 8.8889 47.2006 8.8889C46.6123 8.8889 46.1181 9.07822 45.7416 9.48052C45.3651 9.88281 45.1768 10.3561 45.1768 10.9477V15.799H45.1533ZM58.167 21.1945C58.167 21.7624 58.3788 22.2357 58.8024 22.5907C59.1319 22.9693 59.5555 23.1586 60.0967 23.206C60.638 23.2533 61.1322 23.0403 61.5558 22.5907L64.9445 19.2067C65.3681 18.8044 65.5564 18.3074 65.5564 17.7158C65.5564 17.1478 65.3681 16.6509 64.9681 16.2722C64.568 15.8936 64.0973 15.7043 63.5325 15.7043C63.0383 15.7043 62.5912 15.8936 62.1676 16.2959L58.8024 19.7036C58.3788 20.1059 58.167 20.6029 58.167 21.1945ZM60.0732 49.237C60.0732 49.805 60.2614 50.3019 60.638 50.7279L62.1676 52.2187C62.5912 52.55 63.0619 52.7157 63.5796 52.7157L63.6267 52.763C64.1679 52.763 64.6151 52.5737 64.9916 52.1951C65.3681 51.8164 65.5564 51.3195 65.5564 50.7515C65.5564 50.1836 65.3446 49.734 64.9445 49.379L63.4855 47.8171C63.0619 47.4385 62.5677 47.2492 62.0264 47.2492C61.4852 47.2492 61.0145 47.4385 60.638 47.8408C60.2614 48.2431 60.0732 48.6691 60.0732 49.237ZM63.509 34.2573C63.509 34.8253 63.7208 35.2749 64.1209 35.6535C64.5445 36.0795 65.0151 36.2688 65.5799 36.2688H70.3571C70.9219 36.2688 71.3926 36.0795 71.7926 35.6772C72.1927 35.2749 72.381 34.8016 72.381 34.2573C72.381 33.6894 72.1927 33.2161 71.7926 32.8138C71.3926 32.4115 70.9219 32.1985 70.3571 32.1985H65.5799C65.0151 32.1985 64.5445 32.4115 64.1209 32.8138C63.6973 33.2161 63.509 33.6894 63.509 34.2573Z" fill="white"/>
<defs>
<radialGradient id="paint0_radial_2_144" cx="0" cy="0" r="1" gradientUnits="userSpaceOnUse" gradientTransform="translate(-54 62.5) rotate(-9.08112) scale(123.549)">
<stop offset="0.305855" stop-color="#124576"/>
<stop offset="1" stop-color="#2A9DC1"/>
</radialGradient>
</defs>
</svg>
